<?xml version="1.0" encoding="utf-8" standalone="no"?>
<!DOCTYPE svg PUBLIC "-//W3C//DTD SVG 1.1//EN"
  "http://www.w3.org/Graphics/SVG/1.1/DTD/svg11.dtd">
<svg xmlns:xlink="http://www.w3.org/1999/xlink" width="774.72pt" height="345.6pt" viewBox="0 0 774.72 345.6" xmlns="http://www.w3.org/2000/svg" version="1.1">
 <metadata>
  <rdf:RDF xmlns:dc="http://purl.org/dc/elements/1.1/" xmlns:cc="http://creativecommons.org/ns#" xmlns:rdf="http://www.w3.org/1999/02/22-rdf-syntax-ns#">
   <cc:Work>
    <dc:type rdf:resource="http://purl.org/dc/dcmitype/StillImage"/>
    <dc:date>2023-03-27T10:36:34.862701</dc:date>
    <dc:format>image/svg+xml</dc:format>
    <dc:creator>
     <cc:Agent>
      <dc:title>Matplotlib v3.5.2, https://matplotlib.org/</dc:title>
     </cc:Agent>
    </dc:creator>
   </cc:Work>
  </rdf:RDF>
 </metadata>
 <defs>
  <style type="text/css">*{stroke-linejoin: round; stroke-linecap: butt}</style>
 </defs>
 <g id="figure_1">
  <g id="patch_1">
   <path d="M 0 345.6 
L 774.72 345.6 
L 774.72 0 
L 0 0 
z
" style="fill: #ffffff"/>
  </g>
  <g id="axes_1">
   <g id="patch_2">
    <path d="M 96.84 307.584 
L 697.248 307.584 
L 697.248 41.472 
L 96.84 41.472 
z
" style="fill: #eaeaf2"/>
   </g>
   <g id="matplotlib.axis_1">
    <g id="xtick_1">
     <g id="line2d_1">
      <path d="M 124.131273 307.584 
L 124.131273 41.472 
" clip-path="url(#pa678eaa9b4)" style="fill: none; stroke: #ffffff; stroke-linecap: round"/>
     </g>
     <g id="text_1">
      <!-- 0 -->
      <g style="fill: #262626" transform="translate(121.072757 324.957594)scale(0.11 -0.11)">
       <defs>
        <path id="ArialMT-30" d="M 266 2259 
Q 266 3072 433 3567 
Q 600 4063 929 4331 
Q 1259 4600 1759 4600 
Q 2128 4600 2406 4451 
Q 2684 4303 2865 4023 
Q 3047 3744 3150 3342 
Q 3253 2941 3253 2259 
Q 3253 1453 3087 958 
Q 2922 463 2592 192 
Q 2263 -78 1759 -78 
Q 1097 -78 719 397 
Q 266 969 266 2259 
z
M 844 2259 
Q 844 1131 1108 757 
Q 1372 384 1759 384 
Q 2147 384 2411 759 
Q 2675 1134 2675 2259 
Q 2675 3391 2411 3762 
Q 2147 4134 1753 4134 
Q 1366 4134 1134 3806 
Q 844 3388 844 2259 
z
" transform="scale(0.015625)"/>
       </defs>
       <use xlink:href="#ArialMT-30"/>
      </g>
     </g>
    </g>
    <g id="xtick_2">
     <g id="line2d_2">
      <path d="M 233.296364 307.584 
L 233.296364 41.472 
" clip-path="url(#pa678eaa9b4)" style="fill: none; stroke: #ffffff; stroke-linecap: round"/>
     </g>
     <g id="text_2">
      <!-- 10 -->
      <g style="fill: #262626" transform="translate(227.179332 324.957594)scale(0.11 -0.11)">
       <defs>
        <path id="ArialMT-31" d="M 2384 0 
L 1822 0 
L 1822 3584 
Q 1619 3391 1289 3197 
Q 959 3003 697 2906 
L 697 3450 
Q 1169 3672 1522 3987 
Q 1875 4303 2022 4600 
L 2384 4600 
L 2384 0 
z
" transform="scale(0.015625)"/>
       </defs>
       <use xlink:href="#ArialMT-31"/>
       <use xlink:href="#ArialMT-30" x="55.615234"/>
      </g>
     </g>
    </g>
    <g id="xtick_3">
     <g id="line2d_3">
      <path d="M 342.461455 307.584 
L 342.461455 41.472 
" clip-path="url(#pa678eaa9b4)" style="fill: none; stroke: #ffffff; stroke-linecap: round"/>
     </g>
     <g id="text_3">
      <!-- 20 -->
      <g style="fill: #262626" transform="translate(336.344423 324.957594)scale(0.11 -0.11)">
       <defs>
        <path id="ArialMT-32" d="M 3222 541 
L 3222 0 
L 194 0 
Q 188 203 259 391 
Q 375 700 629 1000 
Q 884 1300 1366 1694 
Q 2113 2306 2375 2664 
Q 2638 3022 2638 3341 
Q 2638 3675 2398 3904 
Q 2159 4134 1775 4134 
Q 1369 4134 1125 3890 
Q 881 3647 878 3216 
L 300 3275 
Q 359 3922 746 4261 
Q 1134 4600 1788 4600 
Q 2447 4600 2831 4234 
Q 3216 3869 3216 3328 
Q 3216 3053 3103 2787 
Q 2991 2522 2730 2228 
Q 2469 1934 1863 1422 
Q 1356 997 1212 845 
Q 1069 694 975 541 
L 3222 541 
z
" transform="scale(0.015625)"/>
       </defs>
       <use xlink:href="#ArialMT-32"/>
       <use xlink:href="#ArialMT-30" x="55.615234"/>
      </g>
     </g>
    </g>
    <g id="xtick_4">
     <g id="line2d_4">
      <path d="M 451.626545 307.584 
L 451.626545 41.472 
" clip-path="url(#pa678eaa9b4)" style="fill: none; stroke: #ffffff; stroke-linecap: round"/>
     </g>
     <g id="text_4">
      <!-- 30 -->
      <g style="fill: #262626" transform="translate(445.509514 324.957594)scale(0.11 -0.11)">
       <defs>
        <path id="ArialMT-33" d="M 269 1209 
L 831 1284 
Q 928 806 1161 595 
Q 1394 384 1728 384 
Q 2125 384 2398 659 
Q 2672 934 2672 1341 
Q 2672 1728 2419 1979 
Q 2166 2231 1775 2231 
Q 1616 2231 1378 2169 
L 1441 2663 
Q 1497 2656 1531 2656 
Q 1891 2656 2178 2843 
Q 2466 3031 2466 3422 
Q 2466 3731 2256 3934 
Q 2047 4138 1716 4138 
Q 1388 4138 1169 3931 
Q 950 3725 888 3313 
L 325 3413 
Q 428 3978 793 4289 
Q 1159 4600 1703 4600 
Q 2078 4600 2393 4439 
Q 2709 4278 2876 4000 
Q 3044 3722 3044 3409 
Q 3044 3113 2884 2869 
Q 2725 2625 2413 2481 
Q 2819 2388 3044 2092 
Q 3269 1797 3269 1353 
Q 3269 753 2831 336 
Q 2394 -81 1725 -81 
Q 1122 -81 723 278 
Q 325 638 269 1209 
z
" transform="scale(0.015625)"/>
       </defs>
       <use xlink:href="#ArialMT-33"/>
       <use xlink:href="#ArialMT-30" x="55.615234"/>
      </g>
     </g>
    </g>
    <g id="xtick_5">
     <g id="line2d_5">
      <path d="M 560.791636 307.584 
L 560.791636 41.472 
" clip-path="url(#pa678eaa9b4)" style="fill: none; stroke: #ffffff; stroke-linecap: round"/>
     </g>
     <g id="text_5">
      <!-- 40 -->
      <g style="fill: #262626" transform="translate(554.674605 324.957594)scale(0.11 -0.11)">
       <defs>
        <path id="ArialMT-34" d="M 2069 0 
L 2069 1097 
L 81 1097 
L 81 1613 
L 2172 4581 
L 2631 4581 
L 2631 1613 
L 3250 1613 
L 3250 1097 
L 2631 1097 
L 2631 0 
L 2069 0 
z
M 2069 1613 
L 2069 3678 
L 634 1613 
L 2069 1613 
z
" transform="scale(0.015625)"/>
       </defs>
       <use xlink:href="#ArialMT-34"/>
       <use xlink:href="#ArialMT-30" x="55.615234"/>
      </g>
     </g>
    </g>
    <g id="xtick_6">
     <g id="line2d_6">
      <path d="M 669.956727 307.584 
L 669.956727 41.472 
" clip-path="url(#pa678eaa9b4)" style="fill: none; stroke: #ffffff; stroke-linecap: round"/>
     </g>
     <g id="text_6">
      <!-- 50 -->
      <g style="fill: #262626" transform="translate(663.839696 324.957594)scale(0.11 -0.11)">
       <defs>
        <path id="ArialMT-35" d="M 266 1200 
L 856 1250 
Q 922 819 1161 601 
Q 1400 384 1738 384 
Q 2144 384 2425 690 
Q 2706 997 2706 1503 
Q 2706 1984 2436 2262 
Q 2166 2541 1728 2541 
Q 1456 2541 1237 2417 
Q 1019 2294 894 2097 
L 366 2166 
L 809 4519 
L 3088 4519 
L 3088 3981 
L 1259 3981 
L 1013 2750 
Q 1425 3038 1878 3038 
Q 2478 3038 2890 2622 
Q 3303 2206 3303 1553 
Q 3303 931 2941 478 
Q 2500 -78 1738 -78 
Q 1113 -78 717 272 
Q 322 622 266 1200 
z
" transform="scale(0.015625)"/>
       </defs>
       <use xlink:href="#ArialMT-35"/>
       <use xlink:href="#ArialMT-30" x="55.615234"/>
      </g>
     </g>
    </g>
    <g id="text_7">
     <!-- Length of observation history -->
     <g style="fill: #262626" transform="translate(320.002125 339.879469)scale(0.12 -0.12)">
      <defs>
       <path id="ArialMT-4c" d="M 469 0 
L 469 4581 
L 1075 4581 
L 1075 541 
L 3331 541 
L 3331 0 
L 469 0 
z
" transform="scale(0.015625)"/>
       <path id="ArialMT-65" d="M 2694 1069 
L 3275 997 
Q 3138 488 2766 206 
Q 2394 -75 1816 -75 
Q 1088 -75 661 373 
Q 234 822 234 1631 
Q 234 2469 665 2931 
Q 1097 3394 1784 3394 
Q 2450 3394 2872 2941 
Q 3294 2488 3294 1666 
Q 3294 1616 3291 1516 
L 816 1516 
Q 847 969 1125 678 
Q 1403 388 1819 388 
Q 2128 388 2347 550 
Q 2566 713 2694 1069 
z
M 847 1978 
L 2700 1978 
Q 2663 2397 2488 2606 
Q 2219 2931 1791 2931 
Q 1403 2931 1139 2672 
Q 875 2413 847 1978 
z
" transform="scale(0.015625)"/>
       <path id="ArialMT-6e" d="M 422 0 
L 422 3319 
L 928 3319 
L 928 2847 
Q 1294 3394 1984 3394 
Q 2284 3394 2536 3286 
Q 2788 3178 2913 3003 
Q 3038 2828 3088 2588 
Q 3119 2431 3119 2041 
L 3119 0 
L 2556 0 
L 2556 2019 
Q 2556 2363 2490 2533 
Q 2425 2703 2258 2804 
Q 2091 2906 1866 2906 
Q 1506 2906 1245 2678 
Q 984 2450 984 1813 
L 984 0 
L 422 0 
z
" transform="scale(0.015625)"/>
       <path id="ArialMT-67" d="M 319 -275 
L 866 -356 
Q 900 -609 1056 -725 
Q 1266 -881 1628 -881 
Q 2019 -881 2231 -725 
Q 2444 -569 2519 -288 
Q 2563 -116 2559 434 
Q 2191 0 1641 0 
Q 956 0 581 494 
Q 206 988 206 1678 
Q 206 2153 378 2554 
Q 550 2956 876 3175 
Q 1203 3394 1644 3394 
Q 2231 3394 2613 2919 
L 2613 3319 
L 3131 3319 
L 3131 450 
Q 3131 -325 2973 -648 
Q 2816 -972 2473 -1159 
Q 2131 -1347 1631 -1347 
Q 1038 -1347 672 -1080 
Q 306 -813 319 -275 
z
M 784 1719 
Q 784 1066 1043 766 
Q 1303 466 1694 466 
Q 2081 466 2343 764 
Q 2606 1063 2606 1700 
Q 2606 2309 2336 2618 
Q 2066 2928 1684 2928 
Q 1309 2928 1046 2623 
Q 784 2319 784 1719 
z
" transform="scale(0.015625)"/>
       <path id="ArialMT-74" d="M 1650 503 
L 1731 6 
Q 1494 -44 1306 -44 
Q 1000 -44 831 53 
Q 663 150 594 308 
Q 525 466 525 972 
L 525 2881 
L 113 2881 
L 113 3319 
L 525 3319 
L 525 4141 
L 1084 4478 
L 1084 3319 
L 1650 3319 
L 1650 2881 
L 1084 2881 
L 1084 941 
Q 1084 700 1114 631 
Q 1144 563 1211 522 
Q 1278 481 1403 481 
Q 1497 481 1650 503 
z
" transform="scale(0.015625)"/>
       <path id="ArialMT-68" d="M 422 0 
L 422 4581 
L 984 4581 
L 984 2938 
Q 1378 3394 1978 3394 
Q 2347 3394 2619 3248 
Q 2891 3103 3008 2847 
Q 3125 2591 3125 2103 
L 3125 0 
L 2563 0 
L 2563 2103 
Q 2563 2525 2380 2717 
Q 2197 2909 1863 2909 
Q 1613 2909 1392 2779 
Q 1172 2650 1078 2428 
Q 984 2206 984 1816 
L 984 0 
L 422 0 
z
" transform="scale(0.015625)"/>
       <path id="ArialMT-20" transform="scale(0.015625)"/>
       <path id="ArialMT-6f" d="M 213 1659 
Q 213 2581 725 3025 
Q 1153 3394 1769 3394 
Q 2453 3394 2887 2945 
Q 3322 2497 3322 1706 
Q 3322 1066 3130 698 
Q 2938 331 2570 128 
Q 2203 -75 1769 -75 
Q 1072 -75 642 372 
Q 213 819 213 1659 
z
M 791 1659 
Q 791 1022 1069 705 
Q 1347 388 1769 388 
Q 2188 388 2466 706 
Q 2744 1025 2744 1678 
Q 2744 2294 2464 2611 
Q 2184 2928 1769 2928 
Q 1347 2928 1069 2612 
Q 791 2297 791 1659 
z
" transform="scale(0.015625)"/>
       <path id="ArialMT-66" d="M 556 0 
L 556 2881 
L 59 2881 
L 59 3319 
L 556 3319 
L 556 3672 
Q 556 4006 616 4169 
Q 697 4388 901 4523 
Q 1106 4659 1475 4659 
Q 1713 4659 2000 4603 
L 1916 4113 
Q 1741 4144 1584 4144 
Q 1328 4144 1222 4034 
Q 1116 3925 1116 3625 
L 1116 3319 
L 1763 3319 
L 1763 2881 
L 1116 2881 
L 1116 0 
L 556 0 
z
" transform="scale(0.015625)"/>
       <path id="ArialMT-62" d="M 941 0 
L 419 0 
L 419 4581 
L 981 4581 
L 981 2947 
Q 1338 3394 1891 3394 
Q 2197 3394 2470 3270 
Q 2744 3147 2920 2923 
Q 3097 2700 3197 2384 
Q 3297 2069 3297 1709 
Q 3297 856 2875 390 
Q 2453 -75 1863 -75 
Q 1275 -75 941 416 
L 941 0 
z
M 934 1684 
Q 934 1088 1097 822 
Q 1363 388 1816 388 
Q 2184 388 2453 708 
Q 2722 1028 2722 1663 
Q 2722 2313 2464 2622 
Q 2206 2931 1841 2931 
Q 1472 2931 1203 2611 
Q 934 2291 934 1684 
z
" transform="scale(0.015625)"/>
       <path id="ArialMT-73" d="M 197 991 
L 753 1078 
Q 800 744 1014 566 
Q 1228 388 1613 388 
Q 2000 388 2187 545 
Q 2375 703 2375 916 
Q 2375 1106 2209 1216 
Q 2094 1291 1634 1406 
Q 1016 1563 777 1677 
Q 538 1791 414 1992 
Q 291 2194 291 2438 
Q 291 2659 392 2848 
Q 494 3038 669 3163 
Q 800 3259 1026 3326 
Q 1253 3394 1513 3394 
Q 1903 3394 2198 3281 
Q 2494 3169 2634 2976 
Q 2775 2784 2828 2463 
L 2278 2388 
Q 2241 2644 2061 2787 
Q 1881 2931 1553 2931 
Q 1166 2931 1000 2803 
Q 834 2675 834 2503 
Q 834 2394 903 2306 
Q 972 2216 1119 2156 
Q 1203 2125 1616 2013 
Q 2213 1853 2448 1751 
Q 2684 1650 2818 1456 
Q 2953 1263 2953 975 
Q 2953 694 2789 445 
Q 2625 197 2315 61 
Q 2006 -75 1616 -75 
Q 969 -75 630 194 
Q 291 463 197 991 
z
" transform="scale(0.015625)"/>
       <path id="ArialMT-72" d="M 416 0 
L 416 3319 
L 922 3319 
L 922 2816 
Q 1116 3169 1280 3281 
Q 1444 3394 1641 3394 
Q 1925 3394 2219 3213 
L 2025 2691 
Q 1819 2813 1613 2813 
Q 1428 2813 1281 2702 
Q 1134 2591 1072 2394 
Q 978 2094 978 1738 
L 978 0 
L 416 0 
z
" transform="scale(0.015625)"/>
       <path id="ArialMT-76" d="M 1344 0 
L 81 3319 
L 675 3319 
L 1388 1331 
Q 1503 1009 1600 663 
Q 1675 925 1809 1294 
L 2547 3319 
L 3125 3319 
L 1869 0 
L 1344 0 
z
" transform="scale(0.015625)"/>
       <path id="ArialMT-61" d="M 2588 409 
Q 2275 144 1986 34 
Q 1697 -75 1366 -75 
Q 819 -75 525 192 
Q 231 459 231 875 
Q 231 1119 342 1320 
Q 453 1522 633 1644 
Q 813 1766 1038 1828 
Q 1203 1872 1538 1913 
Q 2219 1994 2541 2106 
Q 2544 2222 2544 2253 
Q 2544 2597 2384 2738 
Q 2169 2928 1744 2928 
Q 1347 2928 1158 2789 
Q 969 2650 878 2297 
L 328 2372 
Q 403 2725 575 2942 
Q 747 3159 1072 3276 
Q 1397 3394 1825 3394 
Q 2250 3394 2515 3294 
Q 2781 3194 2906 3042 
Q 3031 2891 3081 2659 
Q 3109 2516 3109 2141 
L 3109 1391 
Q 3109 606 3145 398 
Q 3181 191 3288 0 
L 2700 0 
Q 2613 175 2588 409 
z
M 2541 1666 
Q 2234 1541 1622 1453 
Q 1275 1403 1131 1340 
Q 988 1278 909 1158 
Q 831 1038 831 891 
Q 831 666 1001 516 
Q 1172 366 1500 366 
Q 1825 366 2078 508 
Q 2331 650 2450 897 
Q 2541 1088 2541 1459 
L 2541 1666 
z
" transform="scale(0.015625)"/>
       <path id="ArialMT-69" d="M 425 3934 
L 425 4581 
L 988 4581 
L 988 3934 
L 425 3934 
z
M 425 0 
L 425 3319 
L 988 3319 
L 988 0 
L 425 0 
z
" transform="scale(0.015625)"/>
       <path id="ArialMT-79" d="M 397 -1278 
L 334 -750 
Q 519 -800 656 -800 
Q 844 -800 956 -737 
Q 1069 -675 1141 -563 
Q 1194 -478 1313 -144 
Q 1328 -97 1363 -6 
L 103 3319 
L 709 3319 
L 1400 1397 
Q 1534 1031 1641 628 
Q 1738 1016 1872 1384 
L 2581 3319 
L 3144 3319 
L 1881 -56 
Q 1678 -603 1566 -809 
Q 1416 -1088 1222 -1217 
Q 1028 -1347 759 -1347 
Q 597 -1347 397 -1278 
z
" transform="scale(0.015625)"/>
      </defs>
      <use xlink:href="#ArialMT-4c"/>
      <use xlink:href="#ArialMT-65" x="55.615234"/>
      <use xlink:href="#ArialMT-6e" x="111.230469"/>
      <use xlink:href="#ArialMT-67" x="166.845703"/>
      <use xlink:href="#ArialMT-74" x="222.460938"/>
      <use xlink:href="#ArialMT-68" x="250.244141"/>
      <use xlink:href="#ArialMT-20" x="305.859375"/>
      <use xlink:href="#ArialMT-6f" x="333.642578"/>
      <use xlink:href="#ArialMT-66" x="389.257812"/>
      <use xlink:href="#ArialMT-20" x="417.041016"/>
      <use xlink:href="#ArialMT-6f" x="444.824219"/>
      <use xlink:href="#ArialMT-62" x="500.439453"/>
      <use xlink:href="#ArialMT-73" x="556.054688"/>
      <use xlink:href="#ArialMT-65" x="606.054688"/>
      <use xlink:href="#ArialMT-72" x="661.669922"/>
      <use xlink:href="#ArialMT-76" x="694.970703"/>
      <use xlink:href="#ArialMT-61" x="744.970703"/>
      <use xlink:href="#ArialMT-74" x="800.585938"/>
      <use xlink:href="#ArialMT-69" x="828.369141"/>
      <use xlink:href="#ArialMT-6f" x="850.585938"/>
      <use xlink:href="#ArialMT-6e" x="906.201172"/>
      <use xlink:href="#ArialMT-20" x="961.816406"/>
      <use xlink:href="#ArialMT-68" x="989.599609"/>
      <use xlink:href="#ArialMT-69" x="1045.214844"/>
      <use xlink:href="#ArialMT-73" x="1067.431641"/>
      <use xlink:href="#ArialMT-74" x="1117.431641"/>
      <use xlink:href="#ArialMT-6f" x="1145.214844"/>
      <use xlink:href="#ArialMT-72" x="1200.830078"/>
      <use xlink:href="#ArialMT-79" x="1234.130859"/>
     </g>
    </g>
   </g>
   <g id="matplotlib.axis_2">
    <g id="ytick_1">
     <g id="line2d_7">
      <path d="M 96.84 295.532991 
L 697.248 295.532991 
" clip-path="url(#pa678eaa9b4)" style="fill: none; stroke: #ffffff; stroke-linecap: round"/>
     </g>
     <g id="text_8">
      <!-- 0.0 -->
      <g style="fill: #262626" transform="translate(72.05 299.469788)scale(0.11 -0.11)">
       <defs>
        <path id="ArialMT-2e" d="M 581 0 
L 581 641 
L 1222 641 
L 1222 0 
L 581 0 
z
" transform="scale(0.015625)"/>
       </defs>
       <use xlink:href="#ArialMT-30"/>
       <use xlink:href="#ArialMT-2e" x="55.615234"/>
       <use xlink:href="#ArialMT-30" x="83.398438"/>
      </g>
     </g>
    </g>
    <g id="ytick_2">
     <g id="line2d_8">
      <path d="M 96.84 246.227997 
L 697.248 246.227997 
" clip-path="url(#pa678eaa9b4)" style="fill: none; stroke: #ffffff; stroke-linecap: round"/>
     </g>
     <g id="text_9">
      <!-- 0.1 -->
      <g style="fill: #262626" transform="translate(72.05 250.164794)scale(0.11 -0.11)">
       <use xlink:href="#ArialMT-30"/>
       <use xlink:href="#ArialMT-2e" x="55.615234"/>
       <use xlink:href="#ArialMT-31" x="83.398438"/>
      </g>
     </g>
    </g>
    <g id="ytick_3">
     <g id="line2d_9">
      <path d="M 96.84 196.923004 
L 697.248 196.923004 
" clip-path="url(#pa678eaa9b4)" style="fill: none; stroke: #ffffff; stroke-linecap: round"/>
     </g>
     <g id="text_10">
      <!-- 0.2 -->
      <g style="fill: #262626" transform="translate(72.05 200.859801)scale(0.11 -0.11)">
       <use xlink:href="#ArialMT-30"/>
       <use xlink:href="#ArialMT-2e" x="55.615234"/>
       <use xlink:href="#ArialMT-32" x="83.398438"/>
      </g>
     </g>
    </g>
    <g id="ytick_4">
     <g id="line2d_10">
      <path d="M 96.84 147.61801 
L 697.248 147.61801 
" clip-path="url(#pa678eaa9b4)" style="fill: none; stroke: #ffffff; stroke-linecap: round"/>
     </g>
     <g id="text_11">
      <!-- 0.3 -->
      <g style="fill: #262626" transform="translate(72.05 151.554807)scale(0.11 -0.11)">
       <use xlink:href="#ArialMT-30"/>
       <use xlink:href="#ArialMT-2e" x="55.615234"/>
       <use xlink:href="#ArialMT-33" x="83.398438"/>
      </g>
     </g>
    </g>
    <g id="ytick_5">
     <g id="line2d_11">
      <path d="M 96.84 98.313017 
L 697.248 98.313017 
" clip-path="url(#pa678eaa9b4)" style="fill: none; stroke: #ffffff; stroke-linecap: round"/>
     </g>
     <g id="text_12">
      <!-- 0.4 -->
      <g style="fill: #262626" transform="translate(72.05 102.249814)scale(0.11 -0.11)">
       <use xlink:href="#ArialMT-30"/>
       <use xlink:href="#ArialMT-2e" x="55.615234"/>
       <use xlink:href="#ArialMT-34" x="83.398438"/>
      </g>
     </g>
    </g>
    <g id="ytick_6">
     <g id="line2d_12">
      <path d="M 96.84 49.008023 
L 697.248 49.008023 
" clip-path="url(#pa678eaa9b4)" style="fill: none; stroke: #ffffff; stroke-linecap: round"/>
     </g>
     <g id="text_13">
      <!-- 0.5 -->
      <g style="fill: #262626" transform="translate(72.05 52.94482)scale(0.11 -0.11)">
       <use xlink:href="#ArialMT-30"/>
       <use xlink:href="#ArialMT-2e" x="55.615234"/>
       <use xlink:href="#ArialMT-35" x="83.398438"/>
      </g>
     </g>
    </g>
    <g id="text_14">
     <!-- Mean squared error -->
     <g style="fill: #262626" transform="translate(65.665 227.216437)rotate(-90)scale(0.12 -0.12)">
      <defs>
       <path id="ArialMT-4d" d="M 475 0 
L 475 4581 
L 1388 4581 
L 2472 1338 
Q 2622 884 2691 659 
Q 2769 909 2934 1394 
L 4031 4581 
L 4847 4581 
L 4847 0 
L 4263 0 
L 4263 3834 
L 2931 0 
L 2384 0 
L 1059 3900 
L 1059 0 
L 475 0 
z
" transform="scale(0.015625)"/>
       <path id="ArialMT-71" d="M 2538 -1272 
L 2538 353 
Q 2406 169 2170 47 
Q 1934 -75 1669 -75 
Q 1078 -75 651 397 
Q 225 869 225 1691 
Q 225 2191 398 2587 
Q 572 2984 901 3189 
Q 1231 3394 1625 3394 
Q 2241 3394 2594 2875 
L 2594 3319 
L 3100 3319 
L 3100 -1272 
L 2538 -1272 
z
M 803 1669 
Q 803 1028 1072 708 
Q 1341 388 1716 388 
Q 2075 388 2334 692 
Q 2594 997 2594 1619 
Q 2594 2281 2320 2615 
Q 2047 2950 1678 2950 
Q 1313 2950 1058 2639 
Q 803 2328 803 1669 
z
" transform="scale(0.015625)"/>
       <path id="ArialMT-75" d="M 2597 0 
L 2597 488 
Q 2209 -75 1544 -75 
Q 1250 -75 995 37 
Q 741 150 617 320 
Q 494 491 444 738 
Q 409 903 409 1263 
L 409 3319 
L 972 3319 
L 972 1478 
Q 972 1038 1006 884 
Q 1059 663 1231 536 
Q 1403 409 1656 409 
Q 1909 409 2131 539 
Q 2353 669 2445 892 
Q 2538 1116 2538 1541 
L 2538 3319 
L 3100 3319 
L 3100 0 
L 2597 0 
z
" transform="scale(0.015625)"/>
       <path id="ArialMT-64" d="M 2575 0 
L 2575 419 
Q 2259 -75 1647 -75 
Q 1250 -75 917 144 
Q 584 363 401 755 
Q 219 1147 219 1656 
Q 219 2153 384 2558 
Q 550 2963 881 3178 
Q 1213 3394 1622 3394 
Q 1922 3394 2156 3267 
Q 2391 3141 2538 2938 
L 2538 4581 
L 3097 4581 
L 3097 0 
L 2575 0 
z
M 797 1656 
Q 797 1019 1065 703 
Q 1334 388 1700 388 
Q 2069 388 2326 689 
Q 2584 991 2584 1609 
Q 2584 2291 2321 2609 
Q 2059 2928 1675 2928 
Q 1300 2928 1048 2622 
Q 797 2316 797 1656 
z
" transform="scale(0.015625)"/>
      </defs>
      <use xlink:href="#ArialMT-4d"/>
      <use xlink:href="#ArialMT-65" x="83.300781"/>
      <use xlink:href="#ArialMT-61" x="138.916016"/>
      <use xlink:href="#ArialMT-6e" x="194.53125"/>
      <use xlink:href="#ArialMT-20" x="250.146484"/>
      <use xlink:href="#ArialMT-73" x="277.929688"/>
      <use xlink:href="#ArialMT-71" x="327.929688"/>
      <use xlink:href="#ArialMT-75" x="383.544922"/>
      <use xlink:href="#ArialMT-61" x="439.160156"/>
      <use xlink:href="#ArialMT-72" x="494.775391"/>
      <use xlink:href="#ArialMT-65" x="528.076172"/>
      <use xlink:href="#ArialMT-64" x="583.691406"/>
      <use xlink:href="#ArialMT-20" x="639.306641"/>
      <use xlink:href="#ArialMT-65" x="667.089844"/>
      <use xlink:href="#ArialMT-72" x="722.705078"/>
      <use xlink:href="#ArialMT-72" x="756.005859"/>
      <use xlink:href="#ArialMT-6f" x="789.306641"/>
      <use xlink:href="#ArialMT-72" x="844.921875"/>
     </g>
    </g>
   </g>
   <g id="PolyCollection_1">
    <defs>
     <path id="m8f1950faad" d="M 124.131273 -193.436488 
L 124.131273 -163.265871 
L 135.047782 -153.272529 
L 145.964291 -109.592894 
L 156.8808 -75.999291 
L 178.713818 -54.097192 
L 233.296364 -50.243083 
L 342.461455 -50.173728 
L 669.956727 -50.159983 
L 669.956727 -63.607985 
L 669.956727 -63.607985 
L 342.461455 -63.710172 
L 233.296364 -63.450541 
L 178.713818 -68.340966 
L 156.8808 -106.669482 
L 145.964291 -138.127432 
L 135.047782 -185.185165 
L 124.131273 -193.436488 
z
" style="stroke: #46327e; stroke-opacity: 0.2"/>
    </defs>
    <g clip-path="url(#pa678eaa9b4)">
     <use xlink:href="#m8f1950faad" x="0" y="345.6" style="fill: #46327e; fill-opacity: 0.2; stroke: #46327e; stroke-opacity: 0.2"/>
    </g>
   </g>
   <g id="PolyCollection_2">
    <defs>
     <path id="m9e8d5382c6" d="M 124.131273 -177.207003 
L 124.131273 -148.480042 
L 135.047782 -136.380356 
L 145.964291 -102.41762 
L 156.8808 -71.059629 
L 178.713818 -52.772918 
L 233.296364 -50.161702 
L 342.461455 -50.112 
L 669.956727 -50.116278 
L 669.956727 -52.759134 
L 669.956727 -52.759134 
L 342.461455 -52.71909 
L 233.296364 -52.839194 
L 178.713818 -55.472132 
L 156.8808 -80.473023 
L 145.964291 -130.554632 
L 135.047782 -171.383814 
L 124.131273 -177.207003 
z
" style="stroke: #365c8d; stroke-opacity: 0.2"/>
    </defs>
    <g clip-path="url(#pa678eaa9b4)">
     <use xlink:href="#m9e8d5382c6" x="0" y="345.6" style="fill: #365c8d; fill-opacity: 0.2; stroke: #365c8d; stroke-opacity: 0.2"/>
    </g>
   </g>
   <g id="PolyCollection_3">
    <defs>
     <path id="m06320cb458" d="M 124.131273 -195.0091 
L 124.131273 -164.69389 
L 135.047782 -149.48392 
L 145.964291 -112.351257 
L 156.8808 -75.870212 
L 178.713818 -53.137631 
L 233.296364 -50.162644 
L 342.461455 -50.2005 
L 669.956727 -50.520875 
L 669.956727 -59.380055 
L 669.956727 -59.380055 
L 342.461455 -56.147696 
L 233.296364 -55.831055 
L 178.713818 -78.896998 
L 156.8808 -117.254691 
L 145.964291 -159.089799 
L 135.047782 -189.974694 
L 124.131273 -195.0091 
z
" style="stroke: #277f8e; stroke-opacity: 0.2"/>
    </defs>
    <g clip-path="url(#pa678eaa9b4)">
     <use xlink:href="#m06320cb458" x="0" y="345.6" style="fill: #277f8e; fill-opacity: 0.2; stroke: #277f8e; stroke-opacity: 0.2"/>
    </g>
   </g>
   <g id="PolyCollection_4">
    <defs>
     <path id="md0ec7d9ebe" d="M 124.131273 -202.977597 
L 124.131273 -167.369973 
L 135.047782 -158.724832 
L 145.964291 -127.218963 
L 156.8808 -98.436335 
L 178.713818 -63.985056 
L 233.296364 -51.882428 
L 342.461455 -54.143207 
L 669.956727 -60.641163 
L 669.956727 -119.294936 
L 669.956727 -119.294936 
L 342.461455 -104.829073 
L 233.296364 -94.400417 
L 178.713818 -89.300198 
L 156.8808 -133.804327 
L 145.964291 -163.007848 
L 135.047782 -193.92492 
L 124.131273 -202.977597 
z
" style="stroke: #1fa187; stroke-opacity: 0.2"/>
    </defs>
    <g clip-path="url(#pa678eaa9b4)">
     <use xlink:href="#md0ec7d9ebe" x="0" y="345.6" style="fill: #1fa187; fill-opacity: 0.2; stroke: #1fa187; stroke-opacity: 0.2"/>
    </g>
   </g>
   <g id="PolyCollection_5">
    <defs>
     <path id="m02fff82f23" d="M 124.131273 -186.840601 
L 124.131273 -157.705129 
L 135.047782 -164.572187 
L 145.964291 -160.412325 
L 156.8808 -148.674615 
L 178.713818 -122.053451 
L 233.296364 -125.801698 
L 342.461455 -195.981808 
L 669.956727 -249.170518 
L 669.956727 -292.032 
L 669.956727 -292.032 
L 342.461455 -259.131572 
L 233.296364 -187.759268 
L 178.713818 -161.109751 
L 156.8808 -183.021988 
L 145.964291 -193.470106 
L 135.047782 -197.517203 
L 124.131273 -186.840601 
z
" style="stroke: #4ac16d; stroke-opacity: 0.2"/>
    </defs>
    <g clip-path="url(#pa678eaa9b4)">
     <use xlink:href="#m02fff82f23" x="0" y="345.6" style="fill: #4ac16d; fill-opacity: 0.2; stroke: #4ac16d; stroke-opacity: 0.2"/>
    </g>
   </g>
   <g id="PolyCollection_6">
    <defs>
     <path id="ma409067fc0" d="M 124.131273 -188.866659 
L 124.131273 -160.620006 
L 135.047782 -167.546709 
L 145.964291 -166.800052 
L 156.8808 -164.335863 
L 178.713818 -165.25266 
L 233.296364 -198.167321 
L 342.461455 -251.453401 
L 669.956727 -252.628263 
L 669.956727 -290.438902 
L 669.956727 -290.438902 
L 342.461455 -288.670098 
L 233.296364 -232.888861 
L 178.713818 -198.658789 
L 156.8808 -199.93173 
L 145.964291 -202.435958 
L 135.047782 -204.773954 
L 124.131273 -188.866659 
z
" style="stroke: #a0da39; stroke-opacity: 0.2"/>
    </defs>
    <g clip-path="url(#pa678eaa9b4)">
     <use xlink:href="#ma409067fc0" x="0" y="345.6" style="fill: #a0da39; fill-opacity: 0.2; stroke: #a0da39; stroke-opacity: 0.2"/>
    </g>
   </g>
   <g id="line2d_13">
    <path d="M 124.131273 168.177214 
L 135.047782 175.852732 
L 145.964291 221.322621 
L 156.8808 256.686614 
L 178.713818 285.393814 
L 233.296364 290.503157 
L 342.461455 290.482477 
L 669.956727 290.479632 
" clip-path="url(#pa678eaa9b4)" style="fill: none; stroke: #46327e; stroke-width: 1.5; stroke-linecap: round"/>
   </g>
   <g id="line2d_14">
    <path d="M 124.131273 182.586103 
L 135.047782 192.082879 
L 145.964291 228.949455 
L 156.8808 270.019352 
L 178.713818 291.640425 
L 233.296364 294.506291 
L 342.461455 294.561809 
L 669.956727 294.561769 
" clip-path="url(#pa678eaa9b4)" style="fill: none; stroke: #365c8d; stroke-width: 1.5; stroke-linecap: round"/>
   </g>
   <g id="line2d_15">
    <path d="M 124.131273 166.550859 
L 135.047782 176.281535 
L 145.964291 212.006869 
L 156.8808 254.053398 
L 178.713818 282.92392 
L 233.296364 293.35428 
L 342.461455 293.015458 
L 669.956727 291.078363 
" clip-path="url(#pa678eaa9b4)" style="fill: none; stroke: #277f8e; stroke-width: 1.5; stroke-linecap: round"/>
   </g>
   <g id="line2d_16">
    <path d="M 124.131273 160.753623 
L 135.047782 169.808745 
L 145.964291 201.166764 
L 156.8808 230.446033 
L 178.713818 270.489266 
L 233.296364 277.109001 
L 342.461455 269.740251 
L 669.956727 258.96961 
" clip-path="url(#pa678eaa9b4)" style="fill: none; stroke: #1fa187; stroke-width: 1.5; stroke-linecap: round"/>
   </g>
   <g id="line2d_17">
    <path d="M 124.131273 172.522352 
L 135.047782 164.755 
L 145.964291 168.212239 
L 156.8808 180.261122 
L 178.713818 204.559105 
L 233.296364 190.123844 
L 342.461455 118.440899 
L 669.956727 75.66519 
" clip-path="url(#pa678eaa9b4)" style="fill: none; stroke: #4ac16d; stroke-width: 1.5; stroke-linecap: round"/>
   </g>
   <g id="line2d_18">
    <path d="M 124.131273 170.502014 
L 135.047782 159.6438 
L 145.964291 160.065983 
L 156.8808 163.146782 
L 178.713818 164.271419 
L 233.296364 129.189867 
L 342.461455 76.519555 
L 669.956727 74.48245 
" clip-path="url(#pa678eaa9b4)" style="fill: none; stroke: #a0da39; stroke-width: 1.5; stroke-linecap: round"/>
   </g>
   <g id="line2d_19"/>
   <g id="line2d_20"/>
   <g id="line2d_21"/>
   <g id="line2d_22"/>
   <g id="line2d_23"/>
   <g id="line2d_24"/>
   <g id="patch_3">
    <path d="M 96.84 307.584 
L 96.84 41.472 
" style="fill: none; stroke: #ffffff; stroke-width: 1.25; stroke-linejoin: miter; stroke-linecap: square"/>
   </g>
   <g id="patch_4">
    <path d="M 697.248 307.584 
L 697.248 41.472 
" style="fill: none; stroke: #ffffff; stroke-width: 1.25; stroke-linejoin: miter; stroke-linecap: square"/>
   </g>
   <g id="patch_5">
    <path d="M 96.84 307.584 
L 697.248 307.584 
" style="fill: none; stroke: #ffffff; stroke-width: 1.25; stroke-linejoin: miter; stroke-linecap: square"/>
   </g>
   <g id="patch_6">
    <path d="M 96.84 41.472 
L 697.248 41.472 
" style="fill: none; stroke: #ffffff; stroke-width: 1.25; stroke-linejoin: miter; stroke-linecap: square"/>
   </g>
   <g id="text_15">
    <!-- Performance of Dirichlet-Multinomial model -->
    <g style="fill: #262626" transform="translate(282.344625 35.472)scale(0.12 -0.12)">
     <defs>
      <path id="ArialMT-50" d="M 494 0 
L 494 4581 
L 2222 4581 
Q 2678 4581 2919 4538 
Q 3256 4481 3484 4323 
Q 3713 4166 3852 3881 
Q 3991 3597 3991 3256 
Q 3991 2672 3619 2267 
Q 3247 1863 2275 1863 
L 1100 1863 
L 1100 0 
L 494 0 
z
M 1100 2403 
L 2284 2403 
Q 2872 2403 3119 2622 
Q 3366 2841 3366 3238 
Q 3366 3525 3220 3729 
Q 3075 3934 2838 4000 
Q 2684 4041 2272 4041 
L 1100 4041 
L 1100 2403 
z
" transform="scale(0.015625)"/>
      <path id="ArialMT-6d" d="M 422 0 
L 422 3319 
L 925 3319 
L 925 2853 
Q 1081 3097 1340 3245 
Q 1600 3394 1931 3394 
Q 2300 3394 2536 3241 
Q 2772 3088 2869 2813 
Q 3263 3394 3894 3394 
Q 4388 3394 4653 3120 
Q 4919 2847 4919 2278 
L 4919 0 
L 4359 0 
L 4359 2091 
Q 4359 2428 4304 2576 
Q 4250 2725 4106 2815 
Q 3963 2906 3769 2906 
Q 3419 2906 3187 2673 
Q 2956 2441 2956 1928 
L 2956 0 
L 2394 0 
L 2394 2156 
Q 2394 2531 2256 2718 
Q 2119 2906 1806 2906 
Q 1569 2906 1367 2781 
Q 1166 2656 1075 2415 
Q 984 2175 984 1722 
L 984 0 
L 422 0 
z
" transform="scale(0.015625)"/>
      <path id="ArialMT-63" d="M 2588 1216 
L 3141 1144 
Q 3050 572 2676 248 
Q 2303 -75 1759 -75 
Q 1078 -75 664 370 
Q 250 816 250 1647 
Q 250 2184 428 2587 
Q 606 2991 970 3192 
Q 1334 3394 1763 3394 
Q 2303 3394 2647 3120 
Q 2991 2847 3088 2344 
L 2541 2259 
Q 2463 2594 2264 2762 
Q 2066 2931 1784 2931 
Q 1359 2931 1093 2626 
Q 828 2322 828 1663 
Q 828 994 1084 691 
Q 1341 388 1753 388 
Q 2084 388 2306 591 
Q 2528 794 2588 1216 
z
" transform="scale(0.015625)"/>
      <path id="ArialMT-44" d="M 494 0 
L 494 4581 
L 2072 4581 
Q 2606 4581 2888 4516 
Q 3281 4425 3559 4188 
Q 3922 3881 4101 3404 
Q 4281 2928 4281 2316 
Q 4281 1794 4159 1391 
Q 4038 988 3847 723 
Q 3656 459 3429 307 
Q 3203 156 2883 78 
Q 2563 0 2147 0 
L 494 0 
z
M 1100 541 
L 2078 541 
Q 2531 541 2789 625 
Q 3047 709 3200 863 
Q 3416 1078 3536 1442 
Q 3656 1806 3656 2325 
Q 3656 3044 3420 3430 
Q 3184 3816 2847 3947 
Q 2603 4041 2063 4041 
L 1100 4041 
L 1100 541 
z
" transform="scale(0.015625)"/>
      <path id="ArialMT-6c" d="M 409 0 
L 409 4581 
L 972 4581 
L 972 0 
L 409 0 
z
" transform="scale(0.015625)"/>
      <path id="ArialMT-2d" d="M 203 1375 
L 203 1941 
L 1931 1941 
L 1931 1375 
L 203 1375 
z
" transform="scale(0.015625)"/>
     </defs>
     <use xlink:href="#ArialMT-50"/>
     <use xlink:href="#ArialMT-65" x="66.699219"/>
     <use xlink:href="#ArialMT-72" x="122.314453"/>
     <use xlink:href="#ArialMT-66" x="155.615234"/>
     <use xlink:href="#ArialMT-6f" x="183.398438"/>
     <use xlink:href="#ArialMT-72" x="239.013672"/>
     <use xlink:href="#ArialMT-6d" x="272.314453"/>
     <use xlink:href="#ArialMT-61" x="355.615234"/>
     <use xlink:href="#ArialMT-6e" x="411.230469"/>
     <use xlink:href="#ArialMT-63" x="466.845703"/>
     <use xlink:href="#ArialMT-65" x="516.845703"/>
     <use xlink:href="#ArialMT-20" x="572.460938"/>
     <use xlink:href="#ArialMT-6f" x="600.244141"/>
     <use xlink:href="#ArialMT-66" x="655.859375"/>
     <use xlink:href="#ArialMT-20" x="683.642578"/>
     <use xlink:href="#ArialMT-44" x="711.425781"/>
     <use xlink:href="#ArialMT-69" x="783.642578"/>
     <use xlink:href="#ArialMT-72" x="805.859375"/>
     <use xlink:href="#ArialMT-69" x="839.160156"/>
     <use xlink:href="#ArialMT-63" x="861.376953"/>
     <use xlink:href="#ArialMT-68" x="911.376953"/>
     <use xlink:href="#ArialMT-6c" x="966.992188"/>
     <use xlink:href="#ArialMT-65" x="989.208984"/>
     <use xlink:href="#ArialMT-74" x="1044.824219"/>
     <use xlink:href="#ArialMT-2d" x="1072.607422"/>
     <use xlink:href="#ArialMT-4d" x="1105.908203"/>
     <use xlink:href="#ArialMT-75" x="1189.208984"/>
     <use xlink:href="#ArialMT-6c" x="1244.824219"/>
     <use xlink:href="#ArialMT-74" x="1267.041016"/>
     <use xlink:href="#ArialMT-69" x="1294.824219"/>
     <use xlink:href="#ArialMT-6e" x="1317.041016"/>
     <use xlink:href="#ArialMT-6f" x="1372.65625"/>
     <use xlink:href="#ArialMT-6d" x="1428.271484"/>
     <use xlink:href="#ArialMT-69" x="1511.572266"/>
     <use xlink:href="#ArialMT-61" x="1533.789062"/>
     <use xlink:href="#ArialMT-6c" x="1589.404297"/>
     <use xlink:href="#ArialMT-20" x="1611.621094"/>
     <use xlink:href="#ArialMT-6d" x="1639.404297"/>
     <use xlink:href="#ArialMT-6f" x="1722.705078"/>
     <use xlink:href="#ArialMT-64" x="1778.320312"/>
     <use xlink:href="#ArialMT-65" x="1833.935547"/>
     <use xlink:href="#ArialMT-6c" x="1889.550781"/>
    </g>
   </g>
   <g id="legend_1">
    <g id="patch_7">
     <path d="M 704.948 160.105438 
L 761.555031 160.105438 
Q 763.755031 160.105438 763.755031 157.905438 
L 763.755031 49.172 
Q 763.755031 46.972 761.555031 46.972 
L 704.948 46.972 
Q 702.748 46.972 702.748 49.172 
L 702.748 157.905438 
Q 702.748 160.105438 704.948 160.105438 
z
" style="fill: #eaeaf2; opacity: 0.8; stroke: #cccccc; stroke-linejoin: miter"/>
    </g>
    <g id="text_16">
     <!-- beta -->
     <g style="fill: #262626" transform="translate(721.574953 59.961375)scale(0.12 -0.12)">
      <use xlink:href="#ArialMT-62"/>
      <use xlink:href="#ArialMT-65" x="55.615234"/>
      <use xlink:href="#ArialMT-74" x="111.230469"/>
      <use xlink:href="#ArialMT-61" x="139.013672"/>
     </g>
    </g>
    <g id="line2d_25">
     <path d="M 707.148 71.869969 
L 718.148 71.869969 
L 729.148 71.869969 
" style="fill: none; stroke: #46327e; stroke-width: 1.5; stroke-linecap: round"/>
    </g>
    <g id="text_17">
     <!-- 0.01 -->
     <g style="fill: #262626" transform="translate(737.948 75.719969)scale(0.11 -0.11)">
      <use xlink:href="#ArialMT-30"/>
      <use xlink:href="#ArialMT-2e" x="55.615234"/>
      <use xlink:href="#ArialMT-30" x="83.398438"/>
      <use xlink:href="#ArialMT-31" x="139.013672"/>
     </g>
    </g>
    <g id="line2d_26">
     <path d="M 707.148 87.429813 
L 718.148 87.429813 
L 729.148 87.429813 
" style="fill: none; stroke: #365c8d; stroke-width: 1.5; stroke-linecap: round"/>
    </g>
    <g id="text_18">
     <!-- 0.1 -->
     <g style="fill: #262626" transform="translate(737.948 91.279813)scale(0.11 -0.11)">
      <use xlink:href="#ArialMT-30"/>
      <use xlink:href="#ArialMT-2e" x="55.615234"/>
      <use xlink:href="#ArialMT-31" x="83.398438"/>
     </g>
    </g>
    <g id="line2d_27">
     <path d="M 707.148 102.989656 
L 718.148 102.989656 
L 729.148 102.989656 
" style="fill: none; stroke: #277f8e; stroke-width: 1.5; stroke-linecap: round"/>
    </g>
    <g id="text_19">
     <!-- 0.2 -->
     <g style="fill: #262626" transform="translate(737.948 106.839656)scale(0.11 -0.11)">
      <use xlink:href="#ArialMT-30"/>
      <use xlink:href="#ArialMT-2e" x="55.615234"/>
      <use xlink:href="#ArialMT-32" x="83.398438"/>
     </g>
    </g>
    <g id="line2d_28">
     <path d="M 707.148 118.5495 
L 718.148 118.5495 
L 729.148 118.5495 
" style="fill: none; stroke: #1fa187; stroke-width: 1.5; stroke-linecap: round"/>
    </g>
    <g id="text_20">
     <!-- 0.3 -->
     <g style="fill: #262626" transform="translate(737.948 122.3995)scale(0.11 -0.11)">
      <use xlink:href="#ArialMT-30"/>
      <use xlink:href="#ArialMT-2e" x="55.615234"/>
      <use xlink:href="#ArialMT-33" x="83.398438"/>
     </g>
    </g>
    <g id="line2d_29">
     <path d="M 707.148 134.109344 
L 718.148 134.109344 
L 729.148 134.109344 
" style="fill: none; stroke: #4ac16d; stroke-width: 1.5; stroke-linecap: round"/>
    </g>
    <g id="text_21">
     <!-- 0.5 -->
     <g style="fill: #262626" transform="translate(737.948 137.959344)scale(0.11 -0.11)">
      <use xlink:href="#ArialMT-30"/>
      <use xlink:href="#ArialMT-2e" x="55.615234"/>
      <use xlink:href="#ArialMT-35" x="83.398438"/>
     </g>
    </g>
    <g id="line2d_30">
     <path d="M 707.148 149.669188 
L 718.148 149.669188 
L 729.148 149.669188 
" style="fill: none; stroke: #a0da39; stroke-width: 1.5; stroke-linecap: round"/>
    </g>
    <g id="text_22">
     <!-- 1.0 -->
     <g style="fill: #262626" transform="translate(737.948 153.519188)scale(0.11 -0.11)">
      <use xlink:href="#ArialMT-31"/>
      <use xlink:href="#ArialMT-2e" x="55.615234"/>
      <use xlink:href="#ArialMT-30" x="83.398438"/>
     </g>
    </g>
   </g>
  </g>
 </g>
 <defs>
  <clipPath id="pa678eaa9b4">
   <rect x="96.84" y="41.472" width="600.408" height="266.112"/>
  </clipPath>
 </defs>
</svg>
